<?xml version="1.0" encoding="utf-8"?>
<!-- Generator: Adobe Illustrator 27.9.0, SVG Export Plug-In . SVG Version: 6.00 Build 0)  -->
<svg version="1.1" id="Layer_1" xmlns="http://www.w3.org/2000/svg" xmlns:xlink="http://www.w3.org/1999/xlink" x="0px" y="0px"
	 viewBox="0 0 454.9 140.6" style="enable-background:new 0 0 454.9 140.6;" xml:space="preserve">
<style type="text/css">
	.st0{fill:#593F94;}
	.st1{fill:#ED403D;}
	.st2{fill:#00AE6B;}
	.st3{fill:#0E80C4;}
</style>
<g>
	<g>
		<path d="M7.6,57c1.8,0,3.3,1.5,3.3,3.3v11.8c4.8-9.7,14.3-15,26.4-15c17.9,0,36.3,9.5,36.3,37.9v42.1c0,1.8-1.5,3.3-3.3,3.3h-4.2
			c-1.8,0-3.3-1.5-3.3-3.3V96.2c0-19-8.1-29.4-25.6-29.4c-14.4,0-26.4,10.1-26.4,30.2v40.1c0,1.8-1.5,3.3-3.3,3.3H3.3
			c-1.8,0-3.3-1.5-3.3-3.3V60.3C0,58.5,1.5,57,3.3,57H7.6z"/>
	</g>
	<g>
		<path d="M158.3,140.3c-1.8,0-3.3-1.5-3.3-3.3v-11.7c-4.8,9.7-14.3,15-26.4,15c-17.9,0-36.3-9.5-36.3-37.9V60.3
			c0-1.8,1.5-3.3,3.3-3.3h4.2c1.8,0,3.3,1.5,3.3,3.3v40.9c0,19,8.1,29.4,25.6,29.4c14.4,0,26.4-10.1,26.4-30.2V60.3
			c0-1.8,1.5-3.3,3.3-3.3h4.2c1.8,0,3.3,1.5,3.3,3.3V137c0,1.8-1.5,3.3-3.3,3.3H158.3z"/>
	</g>
	<g>
		<path d="M279.2,137V30.1c0-1.8,1.5-3.3,3.3-3.3h4.2c1.8,0,3.3,1.5,3.3,3.3V137c0,1.8-1.5,3.3-3.3,3.3h-4.2
			C280.7,140.3,279.2,138.8,279.2,137z"/>
	</g>
	<g>
		<path d="M324.1,102.4c-1.9,0-3.4,1.8-3,3.6c2.7,14.1,16.1,25.1,30.3,25.1c11.7,0,22.8-6.4,27.7-16.9c0.5-1.1,1.6-1.8,2.8-1.8h4
			c2.3,0,3.8,2.4,2.8,4.4c-7.2,14.6-21.8,23.5-37.2,23.5c-22.5,0-41.3-18.3-41.3-41.5c0-23.1,19-41.8,41.2-41.8
			c23.8,0,41.6,20.5,41.6,42.4l0,0c0,1.7-1.4,3-3.1,3H324.1z M378.6,93.3c2.1,0,3.6-1.9,3-3.8c-4.2-13.2-16-22.1-30.4-22.1
			c-13.7,0-26,8.6-30,22.2c-0.6,1.9,0.9,3.8,3,3.8L378.6,93.3L378.6,93.3z"/>
	</g>
	<g>
		<g>
			<path d="M7.7,15.1v21.8c0,1.5-0.3,2.6-1.1,3.4c-0.7,0.8-1.6,1.2-2.7,1.2s-2-0.4-2.7-1.2c-0.7-0.8-1-1.9-1-3.4V15.3
				c0-1.5,0.3-2.6,1-3.4s1.6-1.1,2.7-1.1s2,0.4,2.7,1.1C7.3,12.7,7.7,13.8,7.7,15.1 M3.9,7.3c-1,0-1.9-0.3-2.7-1
				C0.5,5.7,0.1,4.7,0.1,3.6s0.4-2,1.1-2.6C2,0.3,2.9,0,3.9,0s1.8,0.3,2.6,0.9c0.8,0.6,1.1,1.6,1.1,2.7c0,1.2-0.4,2.1-1.1,2.7
				C5.8,7,5,7.3,3.9,7.3"/>
		</g>
		<g>
			<path d="M40.5,26.7v10c0,1.6-0.4,2.8-1.1,3.6c-0.7,0.8-1.7,1.2-2.8,1.2c-1.1,0-2.1-0.4-2.8-1.2c-0.7-0.8-1.1-2-1.1-3.6v-12
				c0-1.9-0.1-3.4-0.2-4.4s-0.5-1.9-1-2.6c-0.6-0.7-1.5-1-2.7-1c-2.5,0-4.1,0.8-4.9,2.5s-1.2,4.1-1.2,7.3v10.2
				c0,1.6-0.4,2.7-1.1,3.5s-1.6,1.2-2.8,1.2c-1.1,0-2.1-0.4-2.8-1.2c-0.7-0.8-1.1-2-1.1-3.5V15.2c0-1.4,0.3-2.5,1-3.2
				s1.5-1.1,2.6-1.1c1,0,1.9,0.3,2.6,1s1,1.6,1,2.9v0.7c1.3-1.6,2.7-2.7,4.2-3.4c1.5-0.7,3.1-1.1,5-1.1s3.5,0.4,4.9,1.1
				s2.5,1.9,3.4,3.4c1.3-1.5,2.6-2.7,4.1-3.4c1.5-0.7,3.1-1.1,4.8-1.1c2.1,0,3.8,0.4,5.3,1.2c1.5,0.8,2.6,2,3.3,3.5
				c0.6,1.4,1,3.5,1,6.4v14.7c0,1.6-0.4,2.8-1.1,3.6c-0.7,0.8-1.7,1.2-2.8,1.2c-1.1,0-2.1-0.4-2.8-1.2c-0.7-0.8-1.1-2-1.1-3.5V24.2
				c0-1.6-0.1-2.9-0.2-3.9s-0.5-1.8-1.1-2.5s-1.5-1-2.8-1c-1,0-1.9,0.3-2.8,0.9s-1.6,1.4-2.1,2.4C40.8,21.2,40.5,23.5,40.5,26.7"/>
		</g>
		<g>
			<path d="M89.7,31.6c0,2.1-0.5,3.9-1.5,5.3c-1,1.5-2.5,2.6-4.5,3.4s-4.4,1.2-7.2,1.2c-2.7,0-5-0.4-7-1.2c-1.9-0.8-3.4-1.9-4.3-3.1
				c-0.9-1.2-1.4-2.5-1.4-3.7c0-0.8,0.3-1.5,0.9-2.1c0.6-0.6,1.3-0.9,2.2-0.9c0.8,0,1.4,0.2,1.8,0.6c0.4,0.4,0.8,0.9,1.2,1.6
				c0.8,1.4,1.7,2.3,2.8,3s2.5,1,4.4,1c1.5,0,2.7-0.3,3.7-1s1.4-1.4,1.4-2.3c0-1.3-0.5-2.3-1.5-2.9s-2.7-1.2-5-1.7
				c-2.6-0.6-4.7-1.3-6.3-2s-2.9-1.6-3.9-2.8c-1-1.2-1.5-2.6-1.5-4.3c0-1.5,0.4-2.9,1.3-4.3c0.9-1.3,2.2-2.4,4-3.2
				c1.8-0.8,3.9-1.2,6.4-1.2c2,0,3.7,0.2,5.3,0.6c1.5,0.4,2.8,0.9,3.9,1.6c1,0.7,1.8,1.4,2.4,2.3c0.5,0.8,0.8,1.6,0.8,2.4
				c0,0.9-0.3,1.6-0.9,2.1c-0.6,0.6-1.4,0.8-2.5,0.8c-0.8,0-1.4-0.2-2-0.7c-0.6-0.4-1.2-1.1-1.9-2c-0.6-0.7-1.3-1.3-2-1.8
				c-0.8-0.4-1.8-0.7-3.1-0.7c-1.4,0-2.5,0.3-3.4,0.9S71,17.8,71,18.7c0,0.8,0.3,1.4,1,1.9s1.6,0.9,2.7,1.3c1.1,0.3,2.7,0.7,4.6,1.2
				c2.3,0.6,4.2,1.3,5.7,2c1.5,0.8,2.6,1.7,3.4,2.8C89.3,29,89.7,30.2,89.7,31.6"/>
		</g>
	</g>
	<g>
		<circle class="st0" cx="228.3" cy="98.6" r="7.1"/>
		<circle class="st1" cx="240.3" cy="62.6" r="7.1"/>
		<circle class="st2" cx="213.3" cy="133.5" r="7.1"/>
		<circle class="st3" cx="207.2" cy="92.5" r="7.1"/>
		<path d="M246.5,85.6c1.4-1.4,1.4-3.7,0-5c-4.8-4.8-11.3-7.5-18.1-7.5c-8.1,0-15.2,3.7-19.9,9.6c2.6,0.3,4.8,1.6,6.4,3.5
			c3.4-3.6,8.2-5.9,13.5-5.9c4.9,0,9.6,1.9,13.1,5.4C242.8,86.9,245.1,86.9,246.5,85.6z"/>
		<path d="M202.9,101.5c1.4,12.8,12.3,22.7,25.5,22.7c6.8,0,13.3-2.7,18.1-7.5c1.4-1.4,1.4-3.7,0-5c-1.4-1.4-3.7-1.4-5,0
			c-3.5,3.5-8.1,5.4-13.1,5.4c-9,0-16.6-6.5-18.2-15.1c-0.9,0.3-1.9,0.5-3,0.5C205.6,102.5,204.2,102.1,202.9,101.5z"/>
		<path d="M252.7,123c-6.5,6.5-15.2,10.1-24.4,10.1c-1.7,0-3.4-0.1-5.1-0.4c0,0.3,0,0.5,0,0.8c0,2.3-0.8,4.4-2.1,6.1
			c2.3,0.4,4.7,0.6,7.1,0.6c11.1,0,21.6-4.3,29.4-12.2c1.4-1.4,1.4-3.7,0-5C256.4,121.6,254.1,121.6,252.7,123z"/>
		<path d="M247.3,69.8c1.9,1.3,3.8,2.8,5.5,4.5c1.4,1.4,3.7,1.4,5,0c1.4-1.4,1.4-3.7,0-5c-2.3-2.3-4.8-4.3-7.5-5.9
			C250.1,65.8,249,68.1,247.3,69.8z"/>
		<path d="M207,125.7c-8-6.3-13.2-16.1-13.2-27.1c0-19,15.5-34.5,34.5-34.5c0.7,0,1.4,0,2.1,0.1c-0.1-0.5-0.1-1.1-0.1-1.6
			c0-2,0.6-3.8,1.6-5.4c-1.2-0.1-2.4-0.2-3.6-0.2c-22.9,0-41.6,18.7-41.6,41.6c0,13.6,6.5,25.7,16.7,33.3
			C203.8,129.4,205.1,127.2,207,125.7z"/>
	</g>
	<path d="M413.4,137V81c0-1.8,1.5-3.3,3.3-3.3h4.2c1.8,0,3.3,1.5,3.3,3.3v56c0,1.8-1.5,3.3-3.3,3.3h-4.2
		C414.8,140.3,413.4,138.8,413.4,137z"/>
	<path d="M444.1,137V81c0-1.8,1.5-3.3,3.3-3.3h4.2c1.8,0,3.3,1.5,3.3,3.3v56c0,1.8-1.5,3.3-3.3,3.3h-4.2
		C445.6,140.3,444.1,138.8,444.1,137z"/>
	<path d="M420.8,67.4h-4.2c-1.8,0-3.3-1.5-3.3-3.3v-3.8c0-1.8,1.5-3.3,3.3-3.3h4.2c1.8,0,3.3,1.5,3.3,3.3v3.8
		C424.1,65.9,422.6,67.4,420.8,67.4z"/>
	<path d="M451.6,67.4h-4.2c-1.8,0-3.3-1.5-3.3-3.3v-3.8c0-1.8,1.5-3.3,3.3-3.3h4.2c1.8,0,3.3,1.5,3.3,3.3v3.8
		C454.9,65.9,453.4,67.4,451.6,67.4z"/>
</g>
</svg>
